<svg xmlns="http://www.w3.org/2000/svg" xmlns:xlink="http://www.w3.org/1999/xlink" version="1.1" id="Layer_1" x="0px" y="0px" viewBox="0 0 595.3 582.4" style="enable-background:new 0 0 595.3 582.4;" xml:space="preserve">
<style xmlns="http://www.w3.org/2000/svg" type="text/css">
	.st0{fill:#EFF8FD;}
	.st1{fill:#B2DFF8;}
	.st2{fill:#CCE9FB;}
	.st3{fill:#F1F1F1;}
	.st4{fill:#FABB56;}
	.st5{fill:#01384F;}
	.st6{fill:#F3A582;}
	.st7{fill:#2A94F4;}
	.st8{fill:#FACBB6;}
	.st9{fill:#4362eb;}
	.st10{fill:#F8BBA9;}
</style>
<g xmlns="http://www.w3.org/2000/svg">
	<path class="st0" d="M180.8,70.8c-16.1,7-32.1,15.6-43.4,29.2s-16.9,32.9-10.2,49.2c9,21.7,37.7,34.3,37.8,57.8   c0.1,16.8-15.4,29.7-31.1,35.8c-15.7,6.1-33,8.3-47.3,17.3c-21.5,13.5-31.6,39.6-35.7,64.7c-4.3,26-2.6,55.7,15.9,74.5   c22.9,23.5,60.7,20.8,93.1,15.8c43.2-6.7,86.3-14.5,129.3-22.4c94.3-17.2,188.7-34.4,283-51.6c10.1-1.8,20.6-3.9,28.9-10   c16.3-12.3,17.7-37.6,8.2-55.7s-27-30.4-44.5-41S529,213.7,515.9,198c-13.1-15.7-19.6-38.9-9.7-56.8c8.4-15.1,26.4-23.2,34.2-38.7   c10.3-20.3-1.6-46.3-20.3-59.2C501.4,30.3,266,33.6,180.8,70.8z"/>
</g>
<g xmlns="http://www.w3.org/2000/svg">
	<g>
		<circle class="st1" cx="70.4" cy="373.2" r="76"/>
	</g>
	<g>
		<g>
			<path class="st2" d="M70.4,523.4c-1,0-1.7-0.8-1.7-1.7V373.2c0-1,0.8-1.7,1.7-1.7s1.7,0.8,1.7,1.7v148.5     C72.1,522.6,71.3,523.4,70.4,523.4z"/>
		</g>
		<g>
			<path class="st2" d="M70.4,414.3c-0.4,0-0.9-0.2-1.2-0.5l-21.3-21.3c-0.7-0.7-0.7-1.8,0-2.5c0.7-0.7,1.8-0.7,2.5,0l21.3,21.3     c0.7,0.7,0.7,1.8,0,2.5C71.3,414.1,70.8,414.3,70.4,414.3z"/>
		</g>
		<g>
			<path class="st2" d="M70.4,434.1c-0.4,0-0.9-0.2-1.2-0.5l-21.3-21.3c-0.7-0.7-0.7-1.8,0-2.5c0.7-0.7,1.8-0.7,2.5,0l21.3,21.3     c0.7,0.7,0.7,1.8,0,2.5C71.3,433.9,70.8,434.1,70.4,434.1z"/>
		</g>
	</g>
</g>
<g xmlns="http://www.w3.org/2000/svg">
	<g>
		<path class="st2" d="M604.2,320.9c21.8,11.8,36.5,34.8,36.5,61.3c0,38.5-31.2,69.7-69.7,69.7c-29.7,0-55.1-18.6-65.1-44.7    L604.2,320.9z"/>
	</g>
	<g>
		<circle class="st1" cx="496.4" cy="297.3" r="110.4"/>
	</g>
	<g>
		<g>
			<path class="st2" d="M496.4,515.4c-1.4,0-2.5-1.1-2.5-2.5V297.3c0-1.4,1.1-2.5,2.5-2.5c1.4,0,2.5,1.1,2.5,2.5v215.6     C499,514.2,497.8,515.4,496.4,515.4z"/>
		</g>
		<g>
			<path class="st2" d="M496.4,356.9c-0.6,0-1.3-0.2-1.8-0.7l-30.9-30.9c-1-1-1-2.6,0-3.6c1-1,2.6-1,3.6,0l30.9,30.9     c1,1,1,2.6,0,3.6C497.7,356.7,497.1,356.9,496.4,356.9z"/>
		</g>
		<g>
			<path class="st2" d="M496.4,385.6c-0.6,0-1.3-0.2-1.8-0.7L463.8,354c-1-1-1-2.6,0-3.6c1-1,2.6-1,3.6,0l30.9,30.9c1,1,1,2.6,0,3.6     C497.7,385.4,497.1,385.6,496.4,385.6z"/>
		</g>
		<g>
			<path class="st2" d="M570.6,515.3c-1.2-0.2-2.1-1.4-2.1-2.6V399.7c0-1.4,1-2.6,2.4-2.7c1.5-0.1,2.7,1.1,2.7,2.5v113.2     C573.6,514.4,572.2,515.6,570.6,515.3z"/>
		</g>
		<g>
			<path class="st2" d="M571.1,416.1c-0.6,0-1.3-0.2-1.8-0.7c-1-1-1-2.6,0-3.6l22.3-22.3c1-1,2.6-1,3.6,0c1,1,1,2.6,0,3.6     l-22.3,22.3C572.3,415.9,571.7,416.1,571.1,416.1z"/>
		</g>
		<g>
			<path class="st2" d="M571.1,436.8c-0.6,0-1.3-0.2-1.8-0.7c-1-1-1-2.6,0-3.6l22.3-22.3c1-1,2.6-1,3.6,0c1,1,1,2.6,0,3.6     l-22.3,22.3C572.3,436.6,571.7,436.8,571.1,436.8z"/>
		</g>
	</g>
</g>
<path xmlns="http://www.w3.org/2000/svg" class="st3" d="M615.2,582.4H16.6c-4.6,0-8.4-3.8-8.4-8.4v-52.2c0-4.6,3.8-8.4,8.4-8.4h598.6c4.6,0,8.4,3.8,8.4,8.4V574  C623.6,578.6,619.8,582.4,615.2,582.4z"/>
<ellipse xmlns="http://www.w3.org/2000/svg" class="st3" cx="362.8" cy="541.4" rx="235.6" ry="6.2"/>
<circle xmlns="http://www.w3.org/2000/svg" class="st4" cx="506.2" cy="51.8" r="51.8"/>
<g xmlns="http://www.w3.org/2000/svg">
	<path class="st5" d="M246.7,157.5c0,0-4.1,2.8-2,7.5c2,4.7,11,18.7,23.1,18.2c0.5,0-15.2-25.7-15.2-25.7H246.7z"/>
	<g>
		<g>
			<path class="st5" d="M228.2,415.1c0,0-15.1-13.5-20-11.1c-5.9,3-39.8,36.1-38.4,51.7c0.5,6.4,8,0.9,21.3-12.8     c13.3-13.8,30-7.9,30-7.9L228.2,415.1z"/>
		</g>
		<g>
			<path class="st5" d="M264.9,437.9l-18.2-10.9c0,0-47.3,44.3-39.9,50.3c5.6,4.5,8.9,0.5,22.2-13.3c13.3-13.8,30.1-5.8,30.1-5.8     L264.9,437.9z"/>
		</g>
		<polygon class="st6" points="376.4,292 379.8,340.6 303.8,320.8   "/>
		<path class="st7" d="M303.8,322.5c0,0,66.4,4.2,75.3,1.2c0,0,13,127.6-10.1,141.3c-23.1,13.8-75-6.4-75-6.4l14-27.5l30.2-2V380    l-2.2,0.5L303.8,322.5z"/>
		<path class="st7" d="M220.6,409.5c0,0-16.7,6.9-11.3,23.6c0,0,57,44.7,84.8,34.4c15.6-5.8,32.3-49.9,43.9-87.6l41.1-56.2    c0,0-19.4,1-25.9,0.9c-12.4,0-49.4-2.2-49.4-2.2s-19.4,101.3-26.3,103.7C270.7,428.7,220.6,409.5,220.6,409.5z"/>
		<path class="st8" d="M319.3,195.5c0,0,39.8-37.4,46.7-47.2c6.9-9.8,21.6-42.8,39.8-56.5L397,73c0,0,5.4-2.9,8.8,4.9    c0,0,12.8-25.6,15.7-25.1c3,0.5-5.9,19.7-5.9,19.7s12.3-17.7,15.7-17.2c3.4,0.5-8.9,19.9-8.9,19.9s13.8-16,15.7-14    c2,2-10.8,14-10.8,14s13.8-7.9,15.2-5.3c1.5,2.6-13.8,9.5-13.8,9.5s-1.5,11.3-10.8,16.2c0,0-18.5,50-35.2,66.2l-53.7,55.8    L319.3,195.5z"/>
		<path class="st8" d="M271.8,214.8c0,0-37.7,39.5-47.6,46.3c-9.9,6.8-43,21.2-56.9,39.3l-18.6-9c0,0-3,5.4,4.8,8.9    c0,0-25.7,12.5-25.2,15.5c0.5,3,19.7-5.7,19.7-5.7s-17.8,12.1-17.4,15.6c0.5,3.4,20-8.7,20-8.7s-16.1,13.6-14.1,15.6    c1.9,2,14.1-10.7,14.1-10.7s-8,13.7-5.4,15.2c2.6,1.5,9.6-13.7,9.6-13.7s11.3-1.4,16.3-10.7c0,0,47.3-18.8,63.7-35.4l58.9-41.7    L271.8,214.8z"/>
		<path class="st9" d="M285.9,199.1l-19.1,18.7l4.8,21.1c0,0,18.8,45.1,21.6,56.1c4.4,17.1-2.7,43.2-2.7,43.2s31.9-2.6,60.9-3.6    c29-1,38.5-10.3,38.5-10.3s-25.1-83.7-42.5-107.2c-17.4-23.4-23.7-30.7-23.7-30.7l-25.6,5.6L285.9,199.1z"/>
		<path class="st9" d="M341.9,214.3l19.9-12.7c0,0,3-13.6-20.9-29.7l-28.1,17.6L341.9,214.3z"/>
		<path class="st9" d="M270.9,216.3c-10.9,1.5-30.8,29.2-33,29.1c0,0,14,22.9,25.1,23.6C263,269,311.8,210.5,270.9,216.3z"/>
		<path class="st8" d="M309.4,198.3c0,0-15.8-11.8-15.3-16.6c0.1-1.2,2.3-3.1,2.9-4.8c3.1-9.2-11.7-33-20.8-38    c-7.2-3.9-4-4.3-19.1,4.7c-15.1,9-6.5,24.4,0.2,32.4c6.4,7.6,13.6,10.8,20.2,11.4l9.3,20.7L309.4,198.3z"/>
		<path class="st8" d="M280.8,214.7c-3-7.4,2.7-16.6,12.7-20.7c10-4.1,20.5-1.4,23.5,5.9c3,7.3-7.1,18.4-12.7,20.7    C298.7,223,283.8,222.1,280.8,214.7z"/>
	</g>
	<path class="st8" d="M257.3,176.1c0,0-5.1-0.3-5.7,3.1c-0.6,3.4,9.4,3.4,13.1,0.9L257.3,176.1z"/>
	<path class="st5" d="M259.8,179.2c-1-6.2-7.6-10.8-7.2-16.8c3.2,0,5.2-3.9,3.8-7.2c-0.6-1.3-1.5-2.4-2.1-3.7   c-0.6-1.3-0.8-3,0.2-3.7c0.4-0.3,1-0.4,1.6-0.5c4.7-0.5,12.7,0.9,17-0.7c4.1-1.5,8.5-4.5,8.1-9.5c-0.4-4.4-4.2-7.9-7.8-10.6   c-2-1.5-7.9-5.6-10-5.2c-3.4,0.6-4.2,5-4.4,8.8c-2.3-2.2-5.8-1.9-7.8-0.1c-2,1.8-3,4.7-3.9,7.5c-0.9,2.8-1.8,5.7-3.8,7.5   c-1.9,1.7-4.8,3-4.5,6c0.5,3.5,5,4.7,7.1,7.7c-0.5-0.7-1,3.9-0.7,4.7c0.9,2.4,3.1,4,4.8,5.8C253.6,173,255.3,176.9,259.8,179.2z"/>
	<path class="st10" d="M277.5,187.4c0,0,7.5,0,11.5-2.5c0,0-3.4,4.2-10.3,5.3L277.5,187.4z"/>
</g>
</svg>