<svg xmlns="http://www.w3.org/2000/svg" xmlns:xlink="http://www.w3.org/1999/xlink" version="1.1" id="Layer_1" x="0px" y="0px" viewBox="0 0 1080 1080" style="enable-background:new 0 0 1080 1080;" xml:space="preserve">
<style xmlns="http://www.w3.org/2000/svg" type="text/css">
	.st0{opacity:0.06;fill:#2A94F4;}
	.st1{fill:#F7F7F7;}
	.st2{fill:#D3D3D3;}
	.st3{fill:#FAB9AF;}
	.st4{fill:#4362eb;}
	.st5{fill:#0B4870;}
	.st6{fill:#E8948B;}
	.st7{fill:#2A94F4;}
	.st8{fill:#FA968C;}
	.st9{fill:#76838B;}
	.st10{opacity:0.4;fill:#2A94F4;}
	.st11{fill:none;stroke:#4D4D4D;stroke-miterlimit:10;}
	.st12{opacity:0.4;fill:#4362eb;}
</style>
<path xmlns="http://www.w3.org/2000/svg" class="st0" d="M256.73,694.27c0,0-31.78-67.47,21.11-109.19c52.89-41.73-44.11-84.09-9.11-135.91s154-9.82,151-105.82  s97-122,130-93S587.27,420.7,682,405.53C776.73,390.35,865.73,590.65,789.73,694L256.73,694.27z"/>
<path xmlns="http://www.w3.org/2000/svg" class="st1" d="M815.4,704.12c0,7.55-6.12,13.68-13.68,13.68H245.41c-7.55,0-13.68-6.12-13.68-13.68l0,0  c0-7.55,6.12-13.68,13.68-13.68h556.32C809.28,690.45,815.4,696.57,815.4,704.12L815.4,704.12z"/>
<polygon xmlns="http://www.w3.org/2000/svg" class="st2" points="381.74,612 363.57,545.38 412.03,545.38 412.03,604.85 446.17,604.85 446.17,614.76 444.52,614.76   446.44,691.02 442.59,691.02 442.59,613.93 389.18,613.93 382.57,691.02 379.27,691.02 "/>
<g xmlns="http://www.w3.org/2000/svg">
	<g>
		<path class="st3" d="M482.63,590.18c-1.42-1.01-2.73-2.18-3.33-2.52c-0.25-0.14-1.04-0.32-1.26-0.39c-0.66-0.2-1.71-0.4-2.17-0.92    l-1.95-2.14c-0.93-1.05-2.14-1.4-3.19-0.47l0,0c-1.14,1-0.8,2.43,0.33,3.44l1.34,1.52c0.9,0.81,1.35,1.95,1.85,3.06    c1.02,2.25,3.31,3.94,5.28,5.13c1.24,0.74,3.11,0.22,5.56-0.62c1.2-0.41,2.95-1.41,1.45-1.97c-1.26-0.47-5.05,0.55-6.73-2.94    c-0.08-0.17-0.26-0.63-0.09-0.79c0.51-0.48,1.63,0.6,2.38,0.94c1.05,0.48,1.89,0.32,2.16-0.07    C484.53,591.04,483.64,590.9,482.63,590.18z"/>
		<path class="st4" d="M429.26,513.52c0,0,3.13,37.6,14.37,50.29c6.78,7.65,23.34,20.76,27.18,23.77c0.49,0.38,1.17,0.4,1.68,0.04    c0.32-0.23,0.69-0.51,1.01-0.79c0.32-0.28,0.7-0.7,1.03-1.09c0.56-0.65,0.53-1.62-0.05-2.25c-4.3-4.68-21.17-23.2-23.22-28.07    c-2.35-5.59-6.4-38.56-10.12-43.34C437.42,507.3,430.28,506.26,429.26,513.52z"/>
		<polygon class="st3" points="443.45,575.64 433.87,508.29 408.01,504.75 394.56,575.15   "/>
		<path class="st2" d="M444.44,573.92l-10.57-65.63l-25.86-3.55l-13.9,69.3c-0.26,1.3,0.58,2.57,1.89,2.81    c4.81,0.91,16.43,2.82,29.42,2.82c9.7,0,15.15-1.89,17.63-3.08C444.07,576.11,444.62,575.02,444.44,573.92z"/>
		<path class="st4" d="M416.09,508.83c0,4.73-0.86,9.41-2.47,13.85c-3.16,8.69-7.9,25.13-5.08,39.61    c4.05,20.85,9.27,29.28,2.51,34.14c-6.76,4.86-19.72-3.25-20.09-5.95c-0.37-2.7,2.52-35.91,5.8-50.3    c3.28-14.39,12.48-35.07,12.48-35.07l3.9,0.42C414.81,505.72,416.09,507.14,416.09,508.83L416.09,508.83z"/>
		<path class="st4" d="M426.86,507.33c0,0,4.48,9.69,2.92,23.62c-1.56,13.92-5.19,56.33,7.48,62.73    c4.01,2.03,13.18-6.95,13.18-10.28s-3.06-14.48-5.96-24.62c-2.9-10.14-9.88-50.38-9.88-50.38L426.86,507.33z"/>
		<g>
			<path class="st3" d="M423.25,477.29c-5.77,0-7.92,4.11-8.03,11.71c-0.04,2.85,1.24,5.67,2.27,7.47c0.77,1.34,0.98,2.92,0.54,4.4     l-1.27,4.29c-0.86,3.98,1.03,6.16,3.82,6.95c1.38,0.39,3.04,0.09,4.24-0.69c1.43-0.93,1.55-2.92,1.29-4.61l-0.33-1.22     c-0.44-1.65,0.51-3.42,2.18-3.79c4.44-0.97,5.08-5.6,6.27-12.8C435.46,481.5,429.02,477.29,423.25,477.29z"/>
			<path class="st5" d="M436.68,473.96l-3.31,1.01c-1.22,0.37-2.51,0.38-3.73,0.02l-6.61-1.92c-4,0-10.61,2.26-9.78,8.04l0.74,4.08     c0.29,1.63,1.66,2.85,3.31,2.99c0,0,0,0,0,0c0.15,0.56,0.67,0.96,1.25,0.96c0.72,0,1.3-0.58,1.3-1.29l0,0     c0-1.84,1.29-3.41,3.09-3.82c2.2-0.49,4.56-0.61,7.02,0.05c4.59,1.23,9.43-1.61,9.89-6.35c0.03-0.3,0.04-0.6,0.04-0.91     C439.9,474.91,438.32,473.51,436.68,473.96z"/>
			<path class="st3" d="M418.39,489.14c0,1.76-0.66,3.19-2.35,3.19c-1.7,0-2.79-2.42-2.79-4.18c0-1.76,1.09-2.2,2.79-2.2     C417.74,485.95,418.39,487.38,418.39,489.14z"/>
		</g>
	</g>
	<path class="st6" d="M417.69,496.88c0,0,4.31,5.93,9.67,5.12c0,0-1.11,0.53-1.38,1.4C425.98,503.4,420.89,503.02,417.69,496.88z"/>
</g>
<path xmlns="http://www.w3.org/2000/svg" class="st3" d="M365.65,632.53l-6.25,8.73c-1.27,1.78-2.29,3.72-3.02,5.78l-1.15,3.24c-0.95,2.66-4.17,3.67-6.47,2.03  c-5.95-4.25-16.15-11.47-18.78-13.33c-0.43-0.3-0.65-0.89-0.38-1.35c1.59-2.71,8.16,3.23,15.25,5.03  c5.4,1.37,12.61-8.83,15.24-13.64c1-1.82,3.41-2.26,5-0.92l0,0C366.41,629.2,366.65,631.13,365.65,632.53z"/>
<path xmlns="http://www.w3.org/2000/svg" class="st5" d="M449.19,586.85c-1.23-0.62-19.69-22.16-31.39-24c-11.69-1.85-12.92,5.54-27.69,22.77  c-14.77,17.23-36.93,51.7-36.93,51.7l6.77,4.92c0,0,31.39-38.16,41.23-47.39c9.85-9.23,13.85-11.39,16.92-2.77  c3.08,8.62,10.46,23.39,25.23,14.77C458.11,598.24,449.19,586.85,449.19,586.85z"/>
<path xmlns="http://www.w3.org/2000/svg" class="st3" d="M421.54,664.94l3.7,12.28c0.16,0.54,0.41,1.06,0.72,1.53l2.62,3.89c1.66,2.47,0.47,5.85-2.38,6.72  c0,0-5.29,1.86-10.74,3.65c-5.58,1.83-12.6,0.3-12.6-1.17c0-3.27,3.05-0.67,8.16-4.09c1.71-1.14,3.48-2.34,5.05-3.58  c4.4-3.45,0.56-12.19-2.13-17.11c-0.97-1.77,0.06-3.97,2.03-4.39l1.27-0.27C419.13,662.01,420.99,663.11,421.54,664.94z"/>
<path xmlns="http://www.w3.org/2000/svg" class="st5" d="M411.65,581.31c0,0-18.46-1.23-14.15,19.08s17.23,72,17.23,72h11.69l-3.08-72.62  C423.34,599.78,414.11,581.31,411.65,581.31z"/>
<path xmlns="http://www.w3.org/2000/svg" class="st5" d="M425.4,677.67c0,0-4.62,2.36-7.34,2.4c0,0,0.84,4.09-5.62,6.74c-6.46,2.66-9.77,1-9.77,4.86  c0,3.85,8.26,5.51,13.77,3.85c5.51-1.65,12.66-6.61,14.32-7.71C432.4,686.71,425.4,677.67,425.4,677.67z"/>
<path xmlns="http://www.w3.org/2000/svg" class="st5" d="M357.05,644.85c0,0-5.08-2.5-6.88-4.86c0,0-3.03,3.4-9.56-0.52s-7.24-7.89-10.61-5.38s0.57,10.81,5.6,14.55  s14.03,6.77,16.07,7.5C353.71,656.87,357.05,644.85,357.05,644.85z"/>
<path xmlns="http://www.w3.org/2000/svg" class="st4" d="M409,505c0,0-9,25-8,41s0.99,29.05-8.01,19.02S390,504,409,505"/>
<path xmlns="http://www.w3.org/2000/svg" class="st3" d="M444.78,532.41c-1.43,1.76-3.05,3.37-3.54,4.13c-0.21,0.32-0.5,1.33-0.6,1.61c-0.31,0.84-0.65,2.2-1.36,2.75  l-2.94,2.37c-1.44,1.12-1.99,2.66-0.87,4.1l0,0c1.21,1.56,3.09,1.23,4.5-0.15l2.08-1.62c1.13-1.11,2.65-1.6,4.12-2.16  c3.01-1.14,5.39-3.99,7.1-6.46c1.07-1.55,0.53-4.02-0.36-7.28c-0.44-1.6-1.6-3.95-2.45-2.04c-0.71,1.6,0.32,6.61-4.37,8.51  c-0.23,0.09-0.84,0.29-1.03,0.06c-0.58-0.7,0.91-2.07,1.42-3.02c0.71-1.33,0.56-2.44,0.08-2.81  C446.06,530,445.8,531.16,444.78,532.41z"/>
<path xmlns="http://www.w3.org/2000/svg" class="st4" d="M389.96,558.09c0,0,2.21,18.87,12.62,11.89C413,563,432,554,437,550s5-4,5-4l-3.09-6.53L389.96,558.09z"/>
<g xmlns="http://www.w3.org/2000/svg">
	<polygon class="st2" points="697.27,611 715.44,544.38 666.99,544.38 666.99,603.85 632.85,603.85 632.85,613.76 634.5,613.76    632.57,690.02 636.43,690.02 636.43,612.93 689.84,612.93 696.45,690.02 699.75,690.02  "/>
	<g>
		<ellipse class="st5" cx="651.37" cy="517.02" rx="11.77" ry="15.18"/>
		<path class="st5" d="M654.19,518.59c0.19-8.4,6.99-15.47,15.38-15.95c7.44-0.43,13.87,4.14,16.28,10.65    c0.84,2.28,3.08,3.77,5.51,3.73c1.01-0.02,2.05,0.08,3.11,0.29c6.15,1.26,10.93,6.46,11.57,12.7c0.58,5.63-2.05,10.69-6.29,13.57    c-1.81,1.23-2.83,3.27-3.13,5.43c-1.39,10.02-10.53,17.37-20.97,16.23c-8.92-0.98-16.06-8.32-16.82-17.26    c-0.47-5.49,1.42-10.52,4.73-14.26C657.93,531.06,654.04,525.28,654.19,518.59z"/>
		<path class="st5" d="M651.37,496.86c0,0-6.62,4.17-5.82,9.78c0,0-3.54-2.5-4.34-11.13C640.66,489.53,651.37,496.86,651.37,496.86z    "/>
		<g>
			<path class="st3" d="M647.29,531.07c-0.16,4.87-0.48,9.77-1.17,14.7c-0.72,4.91-1.73,9.88-3.6,14.69     c-0.93,2.4-2.08,4.75-3.52,6.96c-1.43,2.21-3.2,4.25-5.28,5.91c-2.07,1.67-4.4,2.98-6.84,3.84c-2.45,0.86-4.97,1.29-7.46,1.46     c-0.72,0.05-1.34-0.5-1.39-1.21c-0.04-0.66,0.41-1.23,1.03-1.36l0.01,0c4.51-0.95,8.61-3.02,11.52-6.14     c2.94-3.1,4.74-7.15,5.84-11.43c1.1-4.3,1.59-8.84,1.78-13.44c0.11-2.3,0.14-4.62,0.12-6.95c-0.01-2.33-0.05-4.67-0.13-7.01     c-0.09-2.51,1.87-4.62,4.38-4.71s4.62,1.87,4.71,4.38c0,0.1,0,0.2,0,0.3L647.29,531.07z"/>
		</g>
		<path class="st7" d="M643.96,560.16c-2.65-7.98-7.98-24.89-7.52-30.42c0.29-3.54,3.25-6.25,6.8-6.25h23.05    c3.82,0,6.95,3.03,7.06,6.85c0.19,6.68-2.88,21.87-4.61,29.82H643.96z"/>
		<path class="st7" d="M671.37,570.28c-1.19-3.35-1.55-6.93-1.05-10.45c1.16-8.17,3.2-23.56,3.01-30.09    c-0.1-3.49-2.96-6.26-6.45-6.26h-3.42c-1.3,3.02-4.06,5.35-8.35,5.35c-4.28,0-7.04-2.33-8.34-5.35h-3.21    c3.49,7.47,2.23,17.32-3.77,23.07c1.12,3.94,2.05,7.91,2.75,11.12c0.95,4.35,0.53,8.89-1.18,13.01    c-2.95,7.07-5.28,18.41-4.59,22.9c24.25,6.87,41.01-5.29,41.01-5.29L671.37,570.28z"/>
		<g>
			<polygon class="st3" points="651.37,525.08 661.83,523.98 658.52,512.54 651.76,513.37    "/>
		</g>
		<path class="st8" d="M651.76,513.37l6.76-0.84l1.03,3.57c-1.51,1.71-3.46,5.39-5.92,5.39c-0.78,0-1.49-0.22-2.13-0.63    L651.76,513.37z"/>
		<path class="st3" d="M651.52,518.91c2.3,0,4.78-1.15,8.2-4.14c1.96-1.72,3.42-4.71,3.42-6.73v-11.18h-17.21    c0,0-1.29,5.94-0.04,11.83C646.83,513.1,649.72,518.91,651.52,518.91z"/>
		<path class="st3" d="M660.22,505.92c0,2.18,1.04,3.95,2.33,3.95c1.29,0,2.71-2.86,2.71-5.04s-1.42-2.86-2.71-2.86    C661.27,501.97,660.22,503.74,660.22,505.92z"/>
		<path class="st5" d="M665.26,498.21c0-3.49-2.83-6.32-6.32-6.32l-5.81,0c-1.66,0-3.27-0.43-4.69-1.24    c-2.05-1.16-4.64-0.78-6.04,1.12c-1.51,2.05-2.17,4.8,1.67,7.34c1.91,1.26,4.69-0.14,6.55,0.47c0.11,0,0.22-0.02,0.34-0.02h5.12    c1.78,0,3.14,1.45,3.19,3.23c0.03,1.13,0.95,2.03,2.09,2.03h0.23l0.82-2.63l2.86,3.85V498.21z"/>
		<path class="st3" d="M614.64,573.43c0,0,6.02,0.7,6.42,2.61c0.39,1.91,0.31,3.26-2.45,3.94c-2.76,0.68-6.86,0.29-9.28-0.43    c-2.42-0.72-5.95-3.64-6.13-4.21c-0.63-2.05,3.61-0.28,5.71,0.48c2.09,0.76,4.54,1.4,4.61,0.29c0.08-1.11-4.04-2.26-4.37-3.56    C608.82,571.25,614.64,573.43,614.64,573.43z"/>
		<path class="st3" d="M632.56,576.09c0,0,5.98-0.98,6.89,0.75c0.9,1.73,1.19,3.05-1.27,4.46c-2.47,1.41-6.52,2.17-9.04,2.14    c-2.52-0.03-6.73-1.87-7.05-2.36c-1.17-1.8,3.4-1.26,5.62-1.11c2.22,0.15,4.75,0.1,4.52-0.99s-4.51-1.06-5.18-2.22    C626.37,575.6,632.56,576.09,632.56,576.09z"/>
		<path class="st5" d="M647.21,496.66c0.58,2.55-0.27,3.95,8.1,7.94c8.37,3.99,11.02,2.28,13.64,6.58c0,0-1.14-7.11-5.77-9.55    c-4.62-2.44-12.64-4.04-15.22-9.69C647.96,491.94,646.82,494.91,647.21,496.66z"/>
		<g>
			<path class="st3" d="M672.45,528.25c1.28,1.69,2.3,3.24,3.35,4.91c1.03,1.65,2.02,3.32,2.94,5.04c1.82,3.45,3.45,7.04,4.71,10.85     c1.23,3.81,2.1,7.87,2.07,12.2c-0.03,2.16-0.32,4.39-1,6.57c-0.65,2.18-1.78,4.28-3.24,6.05c-1.45,1.78-3.21,3.24-5.06,4.36     c-1.86,1.13-3.8,1.95-5.75,2.58c-1.95,0.63-3.91,1.02-5.86,1.35c-1.95,0.26-3.89,0.46-5.82,0.51c-7.71,0.29-15.2-0.67-22.54-2.05     c-0.71-0.13-1.17-0.81-1.04-1.52c0.12-0.65,0.7-1.09,1.34-1.06l0.02,0c3.68,0.18,7.34,0.32,10.99,0.25     c3.64-0.05,7.26-0.24,10.78-0.74c3.52-0.5,6.95-1.28,10.03-2.53c3.06-1.27,5.7-3.09,7.26-5.43c1.59-2.31,2.18-5.16,2.04-8.24     c-0.16-3.09-1.05-6.33-2.25-9.49c-1.19-3.18-2.75-6.31-4.5-9.34c-0.87-1.52-1.78-3.03-2.74-4.5c-0.48-0.74-0.97-1.46-1.47-2.18     c-0.48-0.7-1.02-1.47-1.47-2.06l-0.04-0.06c-1.51-2-1.11-4.85,0.89-6.36C668.09,525.85,670.94,526.25,672.45,528.25z"/>
		</g>
		<path class="st5" d="M648.82,497.14c0,0-0.32,8.6-7.84,12.74c0,0,3.31-6.5,3.09-10.76C643.85,494.87,649.32,494.2,648.82,497.14z"/>
	</g>
	<path class="st8" d="M618.11,663.42l-2.7,11.98c-0.82,3.66-0.31,7.51,1.46,10.82c0,0,0,0,0,0c0.99,1.85,0.11,4.15-1.87,4.85   c-6.4,2.28-18.8,6.62-19.35,6.15c-2.82-2.39,4.63-6.33,10.14-10.47c3.71-2.79,5.13-15.8,5.46-25.78l5.91,1.49   C617.62,662.6,617.98,662.96,618.11,663.42z"/>
	<path class="st5" d="M653.58,587.19l24.63,1.09c0,0,6.57,20.25-5.47,21.89c-12.04,1.64-47.07-2.19-48.17,3.28   c-1.09,5.47-6.57,53.64-6.57,53.64h-8.21c0,0,0.55-30.65,0-46.53s-2.74-22.44,3.83-25.18   C620.19,592.67,653.58,587.19,653.58,587.19z"/>
	<g>
		<path class="st8" d="M625.15,634.83c0,0,1.41,12,1.8,14.02c0.32,1.67,1.48,2.99,2.57,4.29c0.35,0.42,0.61,1.24,0.83,1.94    c0.18,0.56,0.03,1.15-0.3,1.63c-5.94,8.38-17.38,9.3-17.43,8.53c-0.1-1.38,2.13-3.5,4.66-4.17c2.55-0.68,4.48-2.77,5.26-5.29l0,0    c0.62-2,0.72-4.13,0.29-6.18l-2.06-9.21L625.15,634.83z"/>
		<path class="st5" d="M631.79,660.03c0.58-0.39,0.79-1.14,0.5-1.77c-0.24-0.52-0.87-1.93-1.35-2.99c-0.21-0.46-0.81-0.53-1.14-0.15    c-3.72,4.33-8.74,7.13-14.11,6.44c-1.99,0.68-3.75,2.95-3.67,4.04c0.02,0.26,2.31,0.91,5.1,0.18    C629.5,662.55,631.79,660.03,631.79,660.03z"/>
	</g>
	<path class="st5" d="M639.32,590.19l-16.42,3.83l3.83,50.91l-6.02,1.09c0,0-14.78-35.58-14.23-52   c0.55-16.42,13.68-11.49,21.35-9.31C635.49,586.91,639.32,590.19,639.32,590.19z"/>
	<path class="st5" d="M607.05,690.17c-2.65,0.87-5.55,1.15-8.21,1.48c-0.3,0.04-0.6,0.16-0.84,0.34c-2.55,1.98-3.84,3.97-2.34,5.23   c0.6,0.51,15.17-4.65,20.85-6.69c1.19-0.43,1.71-1.8,1.11-2.92l-1.08-2.03C613.57,687.48,610.4,689.06,607.05,690.17z"/>
</g>
<g xmlns="http://www.w3.org/2000/svg">
	<rect x="465.1" y="571.02" class="st5" width="134.9" height="4.96"/>
	<rect x="471.71" y="575.98" class="st9" width="2.75" height="115.08"/>
	<rect x="590.09" y="575.98" class="st9" width="2.75" height="115.08"/>
</g>
<g xmlns="http://www.w3.org/2000/svg">
	<path class="st4" d="M758.57,691.15c0,1.97-1.6,3.56-3.56,3.56h-13.75c-1.97,0-3.56-1.6-3.56-3.56v-32.07   c0-1.97,1.6-3.56,3.56-3.56h13.75c1.97,0,3.56,1.6,3.56,3.56V691.15z"/>
	<path class="st10" d="M749.78,618.6c0,0-11.25,22.87,5.33,26.77c16.58,3.9,17.06-13.36,15.36-20.47   c-1.7-7.11,24.61-26.23,2.91-43.14S734.77,609.87,749.78,618.6z"/>
	<path class="st10" d="M728.83,631.01c0,0-0.53,15.05,9.35,13.14c9.88-1.91,5.96-11.33,3.32-14.75c-2.64-3.42,6.92-20.09-8.87-23.96   C716.85,601.58,718.63,629.95,728.83,631.01z"/>
	<line class="st11" x1="730.51" y1="616.83" x2="742.73" y2="655.52"/>
	<polyline class="st11" points="737.64,624.7 735.05,631.2 729.16,627.95  "/>
	<line class="st11" x1="763.03" y1="594.94" x2="752.55" y2="655.52"/>
	<polyline class="st11" points="769.18,604.1 760.5,609.58 754.93,602.06  "/>
	<polyline class="st11" points="766.81,616.8 758.12,622.29 752.55,614.77  "/>
</g>
<g xmlns="http://www.w3.org/2000/svg">
	<path class="st4" d="M300.57,691.15c0,1.97-1.6,3.56-3.56,3.56h-13.75c-1.97,0-3.56-1.6-3.56-3.56v-32.07   c0-1.97,1.6-3.56,3.56-3.56h13.75c1.97,0,3.56,1.6,3.56,3.56V691.15z"/>
	<path class="st10" d="M291.78,618.6c0,0-11.25,22.87,5.33,26.77c16.58,3.9,17.06-13.36,15.36-20.47   c-1.7-7.11,24.61-26.23,2.91-43.14S276.77,609.87,291.78,618.6z"/>
	<path class="st10" d="M270.83,631.01c0,0-0.53,15.05,9.35,13.14c9.88-1.91,5.96-11.33,3.32-14.75c-2.64-3.42,6.92-20.09-8.87-23.96   S260.63,629.95,270.83,631.01z"/>
	<line class="st11" x1="272.51" y1="616.83" x2="284.73" y2="655.52"/>
	<polyline class="st11" points="279.64,624.7 277.05,631.2 271.16,627.95  "/>
	<line class="st11" x1="305.03" y1="594.94" x2="294.55" y2="655.52"/>
	<polyline class="st11" points="311.18,604.1 302.5,609.58 296.93,602.06  "/>
	<polyline class="st11" points="308.81,616.8 300.12,622.29 294.55,614.77  "/>
</g>
<path xmlns="http://www.w3.org/2000/svg" class="st4" d="M509.01,414.19h-86.9c-2.29,0-4.15,1.86-4.15,4.15v30.51c0,2.29,1.86,4.15,4.15,4.15h5.98v13.55l16.6-13.55  h64.32c2.29,0,4.15-1.86,4.15-4.15v-30.51C513.15,416.04,511.3,414.19,509.01,414.19z M424.24,432.37h51.75v1.75h-51.75V432.37z   M502.99,440.37h-78.75v-1.75h78.75V440.37z M502.99,428.12h-78.75v-1.75h78.75V428.12z"/>
<path xmlns="http://www.w3.org/2000/svg" class="st7" d="M563.95,430.34v30.51c0,2.29,1.86,4.15,4.15,4.15h64.32l16.6,13.55V465h5.98c2.29,0,4.15-1.86,4.15-4.15v-30.51  c0-2.29-1.86-4.15-4.15-4.15h-86.9C565.81,426.19,563.95,428.04,563.95,430.34z M652.87,446.12h-51.75v-1.75h51.75V446.12z   M574.12,450.62h78.75v1.75h-78.75V450.62z M574.12,438.37h78.75v1.75h-78.75V438.37z"/>
<ellipse xmlns="http://www.w3.org/2000/svg" transform="matrix(0.1884 -0.9821 0.9821 0.1884 -330.8043 709.6896)" class="st12" cx="264" cy="555" rx="13" ry="8"/>
<ellipse xmlns="http://www.w3.org/2000/svg" transform="matrix(0.7071 -0.7071 0.7071 0.7071 -306.4554 347.5407)" class="st12" cx="266.29" cy="543.69" rx="8" ry="9.24"/>
<ellipse xmlns="http://www.w3.org/2000/svg" transform="matrix(0.1884 -0.9821 0.9821 0.1884 88.7752 1217.428)" class="st12" cx="781" cy="555" rx="13" ry="8"/>
<ellipse xmlns="http://www.w3.org/2000/svg" transform="matrix(0.7071 -0.7071 0.7071 0.7071 -155.0296 713.1149)" class="st12" cx="783.29" cy="543.69" rx="8" ry="9.24"/>
<path xmlns="http://www.w3.org/2000/svg" class="st2" d="M386,747H276c-2.21,0-4-1.79-4-4l0,0c0-2.21,1.79-4,4-4h110c2.21,0,4,1.79,4,4l0,0  C390,745.21,388.21,747,386,747z"/>
<path xmlns="http://www.w3.org/2000/svg" class="st2" d="M571,747H461c-2.21,0-4-1.79-4-4l0,0c0-2.21,1.79-4,4-4h110c2.21,0,4,1.79,4,4l0,0  C575,745.21,573.21,747,571,747z"/>
<path xmlns="http://www.w3.org/2000/svg" class="st2" d="M766,747H656c-2.21,0-4-1.79-4-4l0,0c0-2.21,1.79-4,4-4h110c2.21,0,4,1.79,4,4l0,0  C770,745.21,768.21,747,766,747z"/>
<path xmlns="http://www.w3.org/2000/svg" class="st2" d="M482,769H372c-2.21,0-4-1.79-4-4l0,0c0-2.21,1.79-4,4-4h110c2.21,0,4,1.79,4,4l0,0  C486,767.21,484.21,769,482,769z"/>
<path xmlns="http://www.w3.org/2000/svg" class="st2" d="M673,769H563c-2.21,0-4-1.79-4-4l0,0c0-2.21,1.79-4,4-4h110c2.21,0,4,1.79,4,4l0,0  C677,767.21,675.21,769,673,769z"/>
</svg>