<svg xmlns="http://www.w3.org/2000/svg" xmlns:xlink="http://www.w3.org/1999/xlink" version="1.1" x="0px" y="0px" width="500px" height="421px" viewBox="0 0 500 421" enable-background="new 0 0 500 421" xml:space="preserve">
<g xmlns="http://www.w3.org/2000/svg" id="BACKGROUND">
</g>
<g xmlns="http://www.w3.org/2000/svg" id="OBJECTS">
</g>
<g xmlns="http://www.w3.org/2000/svg" id="DESIGNED_BY_FREEPIK">
	<g>
		<g opacity="0.4">
			<g>
				<path fill="#4362eb" d="M417.689,263.711c3.943-21.438,0.973-46.383-10.105-65.469c-11.494-19.801-29.086-34.228-37.191-56.613      c-4.635-12.801-6.434-26.626-12.43-38.849c-28.332-57.753-144.545-56.226-151.123,16.434      c-0.449,4.979-0.266,10.107-1.896,14.835c-2.035,5.891-6.967,10.702-12.904,12.592c-9.574,3.047-20.551,0.38-30.508,2.146      c-9.014,1.6-17.727,4.573-25.879,8.731c-16.184,8.255-30.004,21.078-39.803,36.346c-19.572,30.494-21.277,69.823,0.967,99.443      c13.164,17.529,33.188,28.574,53.486,36.844c38.83,15.819,80.854,23.334,122.781,23.567      c33.875,0.189,68.865-4.702,97.818-22.292C396.498,315.875,412.697,290.85,417.689,263.711z"/>
			</g>
		</g>
		<path opacity="0.4" fill="#4362eb" d="M144.031,127.405c9.434,8.582,25.217,6.595,35.252-4.438    c10.035-11.033,17.492-34.599,8.059-43.179c-9.436-8.582-25.664,8.241-39.008,13.756    C129.725,101.235,134.598,118.824,144.031,127.405z"/>
	</g>
	<g>
		<g>
			<path fill="#D3D3D3" d="M348.816,346.252l-24.889-137.893c13.02-2.26,24.924,116.445,24.924,116.445     s-8.627-141.384,4.566-141.384c0.01,0,0.023,0.003,0.023,0.003l-2.83,162.796L348.816,346.252z"/>
			<path fill="#D3D3D3" d="M343.867,346.34l-31.797-90.914c8.24-0.401,18.896,35.146,23.861,53.579     c1.668,6.652,2.773,10.784,2.773,10.784s-1.041-4.347-2.773-10.784c-6.678-26.632-22.436-93.863-13.014-100.237l24.822,137.505     L343.867,346.34z"/>
			<path fill="#9DADEC" d="M335.932,309.005c1.732,6.438,2.773,10.784,2.773,10.784S337.6,315.657,335.932,309.005z"/>
			<path fill="#D3D3D3" d="M339.211,346.417c0,0-39.572-84.606-28.412-90.64c0.078-0.038,0.156-0.062,0.232-0.098l31.719,90.678     L339.211,346.417z"/>
			<path fill="#D3D3D3" d="M355.955,346.129l-1.838,0.031l33.357-119.568C397.881,230.773,355.955,346.129,355.955,346.129z"/>
			<path fill="#D3D3D3" d="M351.676,346.202l2.836-162.419c11.482,7.775,1.443,141.021,1.443,141.021s19.531-95.732,30.438-98.291     l-33.387,119.664L351.676,346.202z"/>
			<path fill="#CCE9FF" d="M353.006,346.178l33.387-119.664c0.348-0.084,0.688-0.07,1.016,0.046     c0.025,0.003,0.043,0.024,0.066,0.032L354.117,346.16L353.006,346.178z"/>
			<path fill="#CCE9FF" d="M350.611,346.22l2.838-162.796c0.373,0.008,0.727,0.135,1.062,0.359l-2.836,162.419L350.611,346.22z"/>
			<path fill="#CCE9FF" d="M347.74,346.272l-24.822-137.505c0.18-0.12,0.367-0.223,0.566-0.3c0.148-0.056,0.295-0.081,0.443-0.108     l24.889,137.893L347.74,346.272z"/>
			<path fill="#CCE9FF" d="M342.75,346.357l-31.719-90.678c0.342-0.152,0.688-0.236,1.039-0.254l31.797,90.914L342.75,346.357z"/>
		</g>
		<g>
			<path fill="#CCE9FF" d="M352.031,321.869l-6.68,24.686l-2.805-0.115l-11.857-112.477     C358.324,264.195,355.293,303.86,352.031,321.869z"/>
			<path fill="#CCE9FF" d="M392.99,272.303l-45.232,74.35l-1.318-0.054l7.367-27.231     C359.336,305.305,371.195,282.734,392.99,272.303z"/>
			<path fill="#CCE9FF" d="M355.275,346.961l-6.301-0.258l44.873-73.759C391.021,331.367,355.275,346.961,355.275,346.961z"/>
			<path fill="#CCE9FF" d="M322.326,345.609c0,0-28.127-14.555-39.459-59.633l44.158,59.826L322.326,345.609z"/>
			<path fill="#CCE9FF" d="M322.623,322.266l7.754,23.674l-1.988-0.081l-45.234-61.282     C305.523,292.585,317.262,310.859,322.623,322.266z"/>
			<path fill="#CCE9FF" d="M329.744,235.176l11.729,111.219l-9.961-0.408l-7.762-23.714     C319.65,304.864,313.877,267.324,329.744,235.176z"/>
			<path fill="#D3D3D3" d="M393.902,271.869c-0.016,0.361-0.039,0.716-0.055,1.075l-44.873,73.759l-1.217-0.051l45.232-74.35     C393.291,272.157,393.596,272.011,393.902,271.869z"/>
			<path fill="#D3D3D3" d="M330.471,233.722c0.072,0.081,0.141,0.164,0.219,0.241l11.857,112.477l-1.074-0.045l-11.729-111.219     C329.982,234.691,330.221,234.204,330.471,233.722z"/>
			<path fill="#D3D3D3" d="M283.154,284.576l45.234,61.282l-1.363-0.056l-44.158-59.826c-0.143-0.559-0.291-1.104-0.426-1.67     C282.684,284.391,282.914,284.488,283.154,284.576z"/>
			<path fill="#577BC2" d="M350.523,328.902c-0.422,1.684-0.707,2.599-0.707,2.599S350.041,330.557,350.523,328.902z"/>
		</g>
		<g>
			<g>
				<path fill="#0B4870" d="M311.775,349.723l-89.732-0.031c-8.279-0.004-14.99-6.719-14.986-14.999l0.078-215.312      c0.004-8.28,6.719-14.99,14.998-14.987l89.73,0.031c8.281,0.003,14.99,6.718,14.988,14.997l-0.08,215.315      C326.77,343.018,320.055,349.727,311.775,349.723z"/>
				<rect x="214.247" y="134.394" fill="#FFFFFF" width="105.594" height="186.852"/>
				<g>
					<g>
						<path opacity="0.89" fill="#FFFFFF" d="M267.586,116.109c-0.188,0.064-0.389,0.099-0.592,0.098        c-0.482,0.001-0.936-0.188-1.277-0.528c-0.34-0.342-0.527-0.794-0.527-1.276c0.002-0.48,0.189-0.935,0.529-1.274        s0.793-0.528,1.277-0.528c0.48,0.001,0.934,0.188,1.273,0.529c0.342,0.34,0.529,0.795,0.527,1.275        c0,0.482-0.188,0.935-0.527,1.275C268.072,115.875,267.84,116.021,267.586,116.109z M266.73,113.645        c-0.111,0.039-0.217,0.103-0.305,0.191c-0.15,0.15-0.234,0.354-0.234,0.567c0,0.215,0.082,0.417,0.234,0.568        c0.152,0.152,0.354,0.236,0.57,0.235c0.213,0.001,0.414-0.081,0.566-0.235c0.152-0.152,0.234-0.353,0.234-0.567l0,0        c0.002-0.215-0.084-0.416-0.234-0.569c-0.15-0.15-0.354-0.234-0.568-0.233C266.904,113.6,266.814,113.616,266.73,113.645z"/>
						<path opacity="0.89" fill="#FFFFFF" d="M277.434,122.221c-0.141,0.048-0.291,0.073-0.447,0.074h-0.002l-19.988-0.008        c-0.754,0.001-1.367-0.615-1.367-1.37c0-0.365,0.143-0.71,0.402-0.968c0.258-0.258,0.604-0.4,0.967-0.398l19.988,0.006        c0.365,0,0.709,0.142,0.969,0.402c0.26,0.257,0.398,0.6,0.4,0.967C278.355,121.525,277.969,122.035,277.434,122.221z         M276.986,121.294c0.205-0.001,0.371-0.165,0.369-0.37c0-0.098-0.037-0.189-0.107-0.26c-0.07-0.068-0.164-0.106-0.262-0.108        l-19.99-0.007c-0.1,0.001-0.191,0.037-0.26,0.108c-0.068,0.07-0.107,0.161-0.107,0.261c-0.002,0.203,0.164,0.369,0.369,0.37        l19.99,0.006H276.986z"/>
					</g>
				</g>
				<path fill="#2A94F4" d="M278.814,339.151c-0.426,0.147-0.877,0.226-1.342,0.226l-21.119-0.009      c-2.254-0.001-4.088-1.836-4.088-4.09v-0.37c0.002-1.092,0.428-2.118,1.199-2.889c0.771-0.773,1.797-1.198,2.891-1.198      l21.121,0.009c2.254,0.002,4.086,1.835,4.086,4.09v0.367c0,1.094-0.426,2.119-1.199,2.892      C279.92,338.623,279.393,338.952,278.814,339.151z"/>
			</g>
			<path opacity="0.8" fill="#F2F2F2" d="M283.344,167.797h-22.5h-3.875h-0.227h-19.838h-2.436h-0.227h-3.875h-15.963h-3.873h-0.229     h-2.436h-19.836h-0.229h-3.873h-22.5c-4.475,0-8.1,3.627-8.1,8.1v46.437c0,4.473,3.625,8.101,8.1,8.101h22.5h3.873h0.229h19.836     h2.436h0.229h3.873h15.963h3.875h0.227h2.436h19.838h0.227h3.875h22.5c4.473,0,8.098-3.628,8.098-8.101v-46.437     C291.441,171.424,287.816,167.797,283.344,167.797z"/>
			<g>
				<path fill="#F2F2F2" d="M305.912,238.159h-2.439h-2.436h-0.227h-3.875h-13.523h-2.439h-1.436h-0.227H277.1h-0.229h-2.436      h-14.963h-2.436h-0.227H254.6h-0.229h-1.436h-2.438h-13.525H233.1h-0.229h-2.436h-2.438c-4.475,0-8.1,3.627-8.1,8.1v15.71      c0,4.473,3.625,8.101,8.1,8.101h2.438h2.436h0.229h3.873h13.525h2.438h1.436h0.229h2.211h0.227h2.436h14.963h2.436h0.229h2.211      h0.227h1.436h2.439h13.523h3.875h0.227h2.436h2.439c4.473,0,8.098-3.628,8.098-8.101v-15.71      C314.01,241.786,310.385,238.159,305.912,238.159z"/>
			</g>
			<g>
				<path fill="#F2F2F2" d="M305.912,277.351h-2.439h-2.436h-0.227h-3.875h-13.523h-2.439h-1.436h-0.227H277.1h-0.229h-2.436      h-14.963h-2.436h-0.227H254.6h-0.229h-1.436h-2.438h-13.525H233.1h-0.229h-2.436h-2.438c-4.475,0-8.1,3.627-8.1,8.1v15.71      c0,4.473,3.625,8.101,8.1,8.101h2.438h2.436h0.229h3.873h13.525h2.438h1.436h0.229h2.211h0.227h2.436h14.963h2.436h0.229h2.211      h0.227h1.436h2.439h13.523h3.875h0.227h2.436h2.439c4.473,0,8.098-3.628,8.098-8.101v-15.71      C314.01,280.978,310.385,277.351,305.912,277.351z"/>
			</g>
			<text transform="matrix(1 0 0 1 229.2021 155.7236)" fill="#2A94F4" font-family="'WorkSans-Medium'" font-size="16">VACANCY</text>
			<path fill="#4362eb" d="M280.855,165.309h-22.5h-3.875h-0.227h-19.838h-2.436h-0.227h-3.875h-15.963h-3.873h-0.229h-2.436     h-19.836h-0.229h-3.873h-22.5c-4.475,0-8.1,3.627-8.1,8.1v46.437c0,4.473,3.625,8.101,8.1,8.101h22.5h3.873h0.229h19.836h2.436     h0.229h3.873h15.963h3.875h0.227h2.436h19.838h0.227h3.875h22.5c4.473,0,8.098-3.628,8.098-8.101v-46.437     C288.953,168.936,285.328,165.309,280.855,165.309z"/>
		</g>
		<g>
			<g>
				<path fill="#424773" d="M126.77,384.249c0,0-0.414,2.879-0.467,3.312c-0.051,0.433-4.613-0.255-4.613-0.255l-0.367-3.428      C121.322,383.878,126.201,383.843,126.77,384.249z"/>
			</g>
			<g>
				<path fill="#424773" d="M159.453,384.249c0,0-0.416,2.879-0.467,3.312s-4.613-0.255-4.613-0.255l-0.369-3.428      C154.004,383.878,158.883,383.843,159.453,384.249z"/>
			</g>
			<g>
				<path fill="#0E538C" d="M159.037,387.193c0,0,1.443,1.735,2.84,2.491c1.4,0.756,8.746,1.377,9.572,2.159      c0.598,0.565-0.615,2.839-8.781,2.627c-5.805-0.151-8.605,0.343-9.229-0.59c-0.623-0.931,0.9-6.882,0.9-6.882      S155.637,387.526,159.037,387.193z"/>
			</g>
			<g>
				<path fill="#EEA886" d="M143.344,256.499c0,0-0.369,2.382-0.031,3.517c0.338,1.132-7.613,1.804-7.613,1.804      s-0.305-6.282-1.24-11.535C133.523,245.032,143.344,256.499,143.344,256.499z"/>
			</g>
			<path fill="#0B4870" d="M120.623,370.53c0.105-3.835,3.043-20.805,3.76-27.974c0.646-6.43,2.518-13.149,2.197-19.305     c-0.189-3.676-0.207-7.313,0.992-9.865c-0.256-0.963,0.99-2.276,0.818-3.448c0,0,22.324-2.528,24.719,1.271     c0,0,3.23,16.87,3.656,20.637c0.426,3.768,0.709,18.231,0.926,20.587c0.211,2.354,1.418,30.811,2.557,34.31h-7.518     c0,0-5.77-20.688-5.77-30.475c0-9.029-3.791-19.496-6.639-26.136c-1.717,6.719-6.105,21.454-7.146,23.915     c-1.279,3.027-6.219,32.695-6.219,32.695l-5.879-0.135C121.078,386.608,120.516,374.364,120.623,370.53z"/>
			<g>
				<g>
					<path fill="#EEA886" d="M134.23,240.477c0,0,6.041-2.811,9.281,1.698c3.238,4.511,3.705,14.015,0.662,15.428       c-3.047,1.412-7.805,1.17-9.645-1.666c-1.836-2.838-3.621-7.009-3.777-9.877C130.6,243.191,132.662,241.431,134.23,240.477z"/>
				</g>
				<g>
					<path fill="#4362eb" d="M133.238,253.7c0,0,0.59,4.313,2.957,3.778c7.555-1.707,5.098-7.394,6.07-7.821       c0.969-0.426,0.932-1.016,0.932-1.016l0.697,0.865l1.066-0.018c0,0-1.191-2.77,0.18-4.043c1.367-1.276-2.238-9.094-9.697-5.812       c0,0-5.762,2.086-5.287,5.419C130.633,248.386,131.791,252.135,133.238,253.7z"/>
				</g>
				<g>
					<path fill="#EEA886" d="M144.869,248.551c-0.07-0.574-1.314-2.333-2.053-0.681c-0.736,1.656,0.379,4.113,1.164,3.998       C144.768,251.757,145.053,250.011,144.869,248.551z"/>
				</g>
				
					<ellipse transform="matrix(-0.9969 0.0782 -0.0782 -0.9969 298.9664 471.799)" fill="#4362eb" cx="140.249" cy="241.751" rx="5.222" ry="4.478"/>
			</g>
			<path fill="#2A94F4" d="M125.762,313.286c-0.576-2.854-0.34-1.745-0.408-3.07c-0.066-1.325,1.816-5.776,1.885-6.762     s-0.271-2.005-0.271-2.379c0-0.373,0.236-3.16,0.236-3.16c0.135-6.523-0.305-10.229-0.51-11.146     c-0.203-0.916-0.68-2.819-0.883-4.62c-0.203-1.802-1.088-3.262-1.664-4.281c-0.578-1.019-0.918-0.851-0.918-0.851     c-0.545,0.885-1.971,1.189-2.277,1.359c-0.305,0.171-4.791,4.452-5.266,4.928c-0.477,0.476-0.035,0.747,0.51,0.917     c0.541,0.17,0.918,2.142,1.053,2.649c0.137,0.51,1.869,1.734,2.445,1.938c0.578,0.205,0.783,1.564,0.783,1.564l2.785,3.805     c-3.637,3.84-6.559,4.758-6.559,4.758c-1.801-2.072-7.305-10.33-7.305-10.33s-3.195-3.976-3.297-6.082     c-0.102-2.107,1.734-3.705,1.734-3.705c4.01-4.824,8.291-8.596,9.922-9.989s2.135-0.385,2.305-1.099s1.193-1.466,1.5-1.5     c0.305-0.034,2.617-2.857,4.316-3.096c1.697-0.237,4.486-0.226,5.643-1.314c1.156-1.086,3.363-2.898,3.363-2.898     c0.006,0.01,0.016,0.018,0.023,0.026c0.051,0.263,0.092-0.481,0.078-0.381c-0.035,0.237,3.398,2.397,8.465,1.243     c0,0,0.137-0.191,0.34-0.469c0.02-0.005,0.033-0.007,0.033-0.007s0.033,1.136,1.154,2.053s1.836,0,1.836,0     s2.037-1.053,3.432-0.849c1.393,0.203,2.072,1.188,2.209,1.29c0.135,0.102,3.059,0.544,3.432,0.442     c0.373-0.103,2.344-1.019,2.344-1.019l2.957-0.749c-1.461-0.713-1.225-1.393-1.225-1.393c-0.371,0.271-1.732,0.34-2.207-0.238     c-0.477-0.577-3.873-3.262-3.873-3.262c2.65-2.48,3.65-5.464,3.65-5.464l-0.557-0.339c0.068-0.406,0.881-0.45,0.881-0.45     s5.844,4.484,8.631,6.185c2.787,1.699,3.396,2.717,3.941,4.35c0.545,1.631-1.562,3.331-1.562,3.331s-1.768,1.427-4.689,3.94     s-6.66,4.01-8.902,4.894c-2.244,0.884-2.719,3.058-2.854,4.078c-0.137,1.019-0.613,7.067-0.613,7.067     c0.816,2.446-0.203,4.824-0.203,4.824s0.611,1.563,0.271,2.855c-0.34,1.291,1.053,5.912,1.666,9.174     c0.611,3.262,1.732,11.52,1.732,11.52l-1.121,0.816 M140.602,318.867"/>
			<path fill="#E0E1E2" d="M123.613,294.693l-0.498-0.364c-1.396,1.453-2.68,2.475-3.729,3.178l0.791,0.586     C120.178,298.093,123.199,295.864,123.613,294.693z M155.537,253.754l0.277-0.383c1.221-1.743,1.719-3.225,1.719-3.225     l-0.557-0.339c0.006-0.034,0.02-0.065,0.035-0.095c-0.863-0.498-2.047-1.134-2.576-1.209c-0.422,0.072-0.58,0.56-0.58,0.56     s0.236,0.109,0.533,0.199c-0.145,1-0.701,3.023-2.787,4.793l2.373,1.466C154.58,254.942,155.1,254.339,155.537,253.754z"/>
			<path fill="#F1B99E" d="M128.863,295.979c-0.641,0.112-1.133,0.415-1.133,0.415s0.064,2.43-0.576,2.652     c-0.598,0.208-2.219,0.596-3.994,0.219c-1.27-0.271-2.014-1.175-2.336-1.672c0.91-0.725,2.496-2.074,2.789-2.899l-0.135-0.099     c0.699-0.096,2.311,0.132,2.666,0.061c0.377-0.075,1.889-0.529,2.945-0.226C130.148,294.731,129.506,295.864,128.863,295.979z      M154.389,249.263c-0.297-0.09-0.533-0.199-0.533-0.199s0.002-0.012,0.008-0.027c-0.252-0.102-0.5-0.223-0.637-0.343     c-0.34-0.302-3.398-3.551-3.398-3.551s-0.68-0.905-1.359-0.831c-0.68,0.076-1.812,0.189-1.812,0.189s-1.059,0.68-0.795,1.247     c0,0,0.141,0.263,0.941,0.009l0.295-0.294c0,0,0.781-0.106,1.057,0c0.275,0.104,0.992,0.59,0.992,0.59s-1.057,0.085-1.562,0.021     s-1.646,0.063-1.793,0.105c-0.148,0.041-0.57,0.104-0.57,0.507c0,0.399,0.084,0.506,0.803,0.611     c0.717,0.104,1.812,0.211,1.812,0.211s0.93,0.189,1.246,0.633l-1.752-0.338l-1.982-0.252c0,0-1.057-0.064-1.076,0.717     c-0.021,0.781,0.422,0.781,0.611,0.865s2.301,0.549,2.301,0.549l0.906,0.105l0.613,0.316l-1.457,0.042l-2.215-0.464     c0,0-1.055-0.296-1.141,0.4c-0.084,0.696,0.232,0.929,0.781,1.098c0.549,0.168,2.363,0.972,2.363,0.972l1.793,0.675     c0,0,0.273,0.569,0.105,0.591c-0.168,0.021-0.949-0.042-1.182-0.106c-0.232-0.062-0.928-0.294-1.055-0.273     c-0.125,0.02-1.309,0.021-1.434,0.295c-0.127,0.273-0.234,0.633,0.338,0.992c0.568,0.358,0.715,0.295,0.949,0.338     c0.23,0.041,0.273,0.379,1.201,0.315c0.93-0.062,1.5,0,1.5,0s0.736-0.189,1.055-0.507c0.316-0.316,0.822-0.822,0.822-0.822     l0.6,0.293C153.707,252.198,154.246,250.242,154.389,249.263z"/>
		</g>
		<path fill="#0E538C" d="M127.896,394.543c0,1.715-1.631,2.104-3.645,2.104l0,0c-2.01,0-3.643-0.389-3.643-2.104v-4.135    c0-1.713,1.633-3.103,3.643-3.103l0,0c2.014,0,3.645,1.39,3.645,3.103V394.543z"/>
		<g>
			<path opacity="0.9" fill="#D3D3D3" d="M232.959,249.613h50.209h16.953c0.566,0,1.01-0.449,1.01-1.008v-1.269     c0-0.562-0.443-1.007-1.01-1.007h-16.953h-50.209c-0.557,0-1.008,0.444-1.008,1.007v1.269     C231.951,249.164,232.402,249.613,232.959,249.613z"/>
			<path opacity="0.9" fill="#D3D3D3" d="M300.125,252.533h-24.477h-42.689c-0.559,0-1.008,0.447-1.008,1.005v1.271     c0,0.557,0.449,1.01,1.008,1.01h42.689h24.477c0.559,0,1.006-0.453,1.006-1.01v-1.271     C301.131,252.98,300.684,252.533,300.125,252.533z"/>
			<path opacity="0.9" fill="#D3D3D3" d="M300.121,258.912h-9.906h-57.256c-0.557,0-1.008,0.452-1.008,1.01v1.268     c0,0.557,0.451,1.008,1.008,1.008h57.256h9.906c0.566,0,1.01-0.451,1.01-1.008v-1.268     C301.131,259.364,300.688,258.912,300.121,258.912z"/>
		</g>
		<g>
			<g>
				<g>
					<g>
						<path fill="#FFFFFF" d="M261.969,193.139v2.362c0,1.036-0.84,1.877-1.879,1.877h-93.51c-1.037,0-1.877-0.841-1.877-1.877        v-2.362c0-1.052,0.84-1.876,1.877-1.876h93.51C261.129,191.263,261.969,192.087,261.969,193.139z"/>
					</g>
				</g>
				<g>
					<path fill="#FFFFFF" d="M247.967,205.061v2.363c0,1.041-0.838,1.885-1.881,1.885H166.58c-1.041,0-1.877-0.844-1.877-1.885       v-2.363c0-1.037,0.836-1.873,1.877-1.873h79.506C247.129,203.188,247.967,204.023,247.967,205.061z"/>
				</g>
				<g>
					<path fill="#FFFFFF" d="M275.092,181.83v2.363c0,1.037-0.84,1.878-1.877,1.878H166.58c-1.037,0-1.877-0.841-1.877-1.878v-2.363       c0-1.033,0.84-1.875,1.877-1.875h106.635C274.252,179.955,275.092,180.797,275.092,181.83z"/>
				</g>
			</g>
		</g>
		<g>
			<g>
				<g>
					<path fill="#D3D3D3" d="M290.434,292.42v1.402c0,0.614-0.498,1.114-1.115,1.114h-55.504c-0.615,0-1.113-0.5-1.113-1.114v-1.402       c0-0.624,0.498-1.113,1.113-1.113h55.504C289.936,291.307,290.434,291.796,290.434,292.42z"/>
				</g>
			</g>
			<g>
				<path fill="#D3D3D3" d="M282.121,299.496v1.403c0,0.617-0.496,1.118-1.115,1.118h-47.191c-0.617,0-1.113-0.501-1.113-1.118      v-1.403c0-0.615,0.496-1.111,1.113-1.111h47.191C281.625,298.385,282.121,298.881,282.121,299.496z"/>
			</g>
			<g>
				<path fill="#D3D3D3" d="M298.223,285.708v1.402c0,0.615-0.498,1.115-1.113,1.115h-63.295c-0.615,0-1.113-0.5-1.113-1.115v-1.402      c0-0.613,0.498-1.113,1.113-1.113h63.295C297.725,284.595,298.223,285.095,298.223,285.708z"/>
			</g>
		</g>
	</g>
</g>
</svg>